<?xml version="1.0" encoding="UTF-8" standalone="no"?>
<!-- Created with Inkscape (http://www.inkscape.org/) -->

<svg
   width="285.66504"
   height="169.73633"
   viewBox="0 0 285.66504 169.73633"
   version="1.1"
   id="svg5"
   inkscape:version="1.1.1 (3bf5ae0d25, 2021-09-20, custom)"
   sodipodi:docname="glim.svg"
   xmlns:inkscape="http://www.inkscape.org/namespaces/inkscape"
   xmlns:sodipodi="http://sodipodi.sourceforge.net/DTD/sodipodi-0.dtd"
   xmlns="http://www.w3.org/2000/svg"
   xmlns:svg="http://www.w3.org/2000/svg">
  <sodipodi:namedview
     id="namedview7"
     pagecolor="#ffffff"
     bordercolor="#666666"
     borderopacity="1.0"
     inkscape:pageshadow="2"
     inkscape:pageopacity="0.0"
     inkscape:pagecheckerboard="0"
     inkscape:document-units="px"
     showgrid="false"
     inkscape:zoom="3.6670051"
     inkscape:cx="152.03142"
     inkscape:cy="72.129707"
     inkscape:window-width="1920"
     inkscape:window-height="1046"
     inkscape:window-x="0"
     inkscape:window-y="0"
     inkscape:window-maximized="1"
     inkscape:current-layer="layer1"
     inkscape:snap-global="true"
     inkscape:snap-grids="false" />
  <defs
     id="defs2" />
  <g
     inkscape:label="Layer 1"
     inkscape:groupmode="layer"
     id="layer1"
     transform="translate(-323.40771,-226.63051)"
     style="display:inline">
    <text
       xml:space="preserve"
       style="font-style:normal;font-weight:normal;font-size:40px;line-height:1.25;font-family:sans-serif;fill:#000000;fill-opacity:1;stroke:none"
       x="203.71919"
       y="255.92198"
       id="text8218"><tspan
         sodipodi:role="line"
         id="tspan8216"
         x="203.71919"
         y="255.92198" /></text>
    <path
       style="opacity:1;mix-blend-mode:normal;fill:#54baff;fill-opacity:0.995836;stroke:#ffffff;stroke-width:1.5;stroke-miterlimit:4;stroke-dasharray:none;stroke-opacity:1"
       d="m 462.56405,265.75538 c -1.90309,-0.86447 -4.65273,-3.88332 -5.28673,-5.80435 -1.17476,-3.55954 0.55783,-9.65862 3.79839,-13.37117 4.09056,-4.68635 6.0331,-8.19348 6.90457,-12.46582 0.45924,-2.2514 0.53201,-2.36315 1.1106,-1.70558 0.34053,0.38702 1.02845,1.49417 1.52871,2.46033 0.78227,1.51084 0.92708,2.4395 1.03482,6.63627 0.15335,5.97404 0.27961,6.63627 1.26516,6.63627 0.57211,0 0.89628,-0.46111 1.30353,-1.85425 l 0.54203,-1.85425 0.83032,1.36251 c 1.25874,2.06558 2.14119,6.63156 1.92691,9.97043 -0.32385,5.04637 -2.84194,8.74691 -6.89071,10.12645 -2.3918,0.81498 -6.11108,0.75188 -8.0676,-0.13684 z"
       id="path7224" />
    <path
       d="m 394.90331,348.00694 q -0.97198,7.71512 -4.55617,12.81804 -3.58419,5.10291 -8.80861,7.95812 -5.22441,2.91595 -11.23856,4.13093 -6.01415,1.21498 -11.96755,1.21498 -2.85521,0 -6.0749,-0.48599 -3.2197,-0.42525 -5.89266,-1.03274 -2.67295,-0.60749 -3.82718,-1.15423 l 3.03745,-12.63579 q 0.60749,0.54674 3.21969,1.94397 2.67296,1.39723 6.25715,2.61221 3.64494,1.27572 7.16838,1.27572 6.01415,0 9.1731,-2.42996 3.15895,-2.36921 4.07018,-10.20583 l 1.45798,-13.12178 q -2.79445,2.24771 -6.74314,4.00943 -3.94868,1.70097 -9.1731,1.70097 -7.41138,0 -12.08905,-3.40194 -4.61692,-3.46269 -6.80389,-9.11235 -2.12621,-5.71041 -2.12621,-12.51429 0,-8.62636 2.55146,-16.70598 2.6122,-8.07962 7.71512,-14.51901 5.16366,-6.43939 12.75729,-10.20583 7.59362,-3.76644 17.67796,-3.76644 3.76644,0 7.83662,0.91124 4.13093,0.85048 6.74314,1.88321 l 9.59834,-2.79445 z M 384.81898,283.37 q -1.15423,-0.36449 -2.61221,-0.60749 -1.39722,-0.24299 -2.8552,-0.24299 -5.46741,0 -9.1731,3.40194 -3.64494,3.40194 -5.8319,8.86935 -2.18697,5.40667 -3.15895,11.78531 -0.91124,6.3179 -0.91124,12.2713 0,7.28988 2.36922,11.42081 2.42996,4.13093 6.50014,4.13093 2.55146,0 4.85992,-1.33648 2.30846,-1.39722 4.00943,-3.28044 z"
       id="path112180"
       style="font-style:italic;font-weight:900;font-size:121.498px;line-height:1.25;font-family:Merriweather;-inkscape-font-specification:'Merriweather, Heavy Italic';stroke-width:1.5;fill:#2e2e2e;fill-opacity:0.71764708;stroke:#ffffff;stroke-opacity:1;stroke-miterlimit:4;stroke-dasharray:none;stroke-linecap:butt;stroke-linejoin:round" />
    <path
       d="m 430.80587,330.02523 q -0.66824,4.49543 2.18697,4.49543 0.91123,0 2.00471,-0.48599 1.09348,-0.48599 3.4627,-2.24771 l 1.57947,4.19168 q -0.66824,0.91123 -2.79445,2.9767 -2.06547,2.06546 -5.83191,3.88793 -3.76644,1.76172 -9.41609,1.76172 -2.36921,0 -4.92067,-0.78973 -2.49071,-0.78974 -4.19168,-2.55146 -1.70098,-1.76172 -1.70098,-4.67767 0,-1.03274 0.18225,-2.42996 0.243,-1.45798 0.30375,-2.12622 l 11.48156,-78.06246 -7.89737,-2.42996 1.21498,-4.85992 23.44911,-2.55146 3.03745,1.70097 z"
       id="path112182"
       style="font-style:italic;font-weight:900;font-size:121.498px;line-height:1.25;font-family:Merriweather;-inkscape-font-specification:'Merriweather, Heavy Italic';stroke-width:1.5;fill:#2e2e2e;fill-opacity:0.71764708;stroke:#ffffff;stroke-opacity:1;stroke-miterlimit:4;stroke-dasharray:none;stroke-linecap:butt;stroke-linejoin:round" />
    <path
       style="font-style:italic;font-weight:900;font-size:121.498px;line-height:1.25;font-family:Merriweather;-inkscape-font-specification:'Merriweather, Heavy Italic';stroke-width:1.5;fill:#2e2e2e;fill-opacity:0.71764708;stroke:#ffffff;stroke-opacity:1;stroke-miterlimit:4;stroke-dasharray:none;stroke-linecap:butt;stroke-linejoin:round"
       d="m 461.96994,344.60499 q -6.19639,0 -9.1731,-2.4907 -2.9767,-2.49071 -2.42996,-6.3179 0.97199,-7.04688 2.61221,-19.68268 1.70097,-12.69654 3.94869,-29.70626 l -6.80389,-3.70569 0.97198,-5.16366 23.44912,-3.15895 3.21969,1.45798 -7.59362,54.1881 q -0.66824,4.49543 2.06546,4.49543 1.70098,0 5.52816,-2.7337 l 1.57948,4.19168 q -0.66824,0.91123 -2.85521,2.9767 -2.12621,2.06546 -5.77115,3.88793 -3.64494,1.76172 -8.74786,1.76172 z"
       id="path112184" />
    <path
       d="m 516.82609,275.83713 -1.03274,12.57504 q 3.70569,-5.9534 10.02359,-9.96284 6.31789,-4.07018 13.18253,-4.07018 5.89265,0 9.35535,3.0982 3.46269,3.03745 4.37393,10.63107 7.95811,-13.72927 23.57061,-13.72927 6.80389,0 11.23856,4.00943 4.43468,3.94869 4.43468,13.97227 0,1.76173 -0.48599,5.52816 -0.48599,3.76644 -1.15423,8.01887 -0.66824,4.19168 -1.27573,7.47213 -0.78974,4.55617 -1.70097,9.53759 -0.85049,4.98142 -0.85049,8.26187 0,2.18696 0.66824,2.79445 0.72899,0.54674 1.64022,0.54674 1.03273,0 2.12622,-0.54674 1.15423,-0.60749 3.21969,-2.18696 l 1.70098,4.19168 q -0.66824,0.91123 -2.85521,2.9767 -2.12621,2.06546 -5.8319,3.88793 -3.70569,1.76172 -8.99085,1.76172 -5.22442,0 -7.77588,-1.51872 -2.55145,-1.57947 -3.34119,-3.88794 -0.72899,-2.30846 -0.72899,-4.55617 0,-2.67296 0.97199,-7.59363 0.97198,-4.98141 1.82247,-9.96283 0.85048,-4.85992 1.82247,-11.17782 0.97198,-6.37864 0.85048,-11.54231 -0.0607,-4.98142 -1.21498,-6.62164 -1.15423,-1.70097 -3.58419,-1.70097 -3.46269,0 -7.35063,2.9767 -3.88793,2.91595 -6.74314,8.20111 -0.1215,3.88794 -0.54674,8.20112 -0.36449,4.31318 -0.85048,7.95812 l -3.52345,30.01 h -19.07518 l 3.40194,-26.24356 q 0.66824,-4.98142 1.27573,-11.11707 0.66824,-6.1964 0.60749,-11.29931 -0.18225,-5.58891 -1.51872,-7.10764 -1.33648,-1.57947 -4.19169,-1.57947 -3.15894,0 -7.22913,3.94868 -4.07018,3.88794 -6.92538,9.4161 l -6.01415,43.98227 h -18.89294 l 7.77587,-57.1648 -6.3179,-3.52345 0.97199,-5.16366 21.80889,-3.15895 z"
       id="path112186"
       style="font-style:italic;font-weight:900;font-size:121.498px;line-height:1.25;font-family:Merriweather;-inkscape-font-specification:'Merriweather, Heavy Italic';stroke-width:1.5;fill:#2e2e2e;fill-opacity:0.71764708;stroke:#ffffff;stroke-opacity:1;stroke-miterlimit:4;stroke-dasharray:none;stroke-linecap:butt;stroke-linejoin:round" />
  </g>
</svg>
